# xmcd
#
# Track frame offsets:
#  166
#  41666
#  71456
#  97082
#  117617
#  154318
#
# Disc length: 2558 seconds
#
# Revision: 0
# Processed by: cddbd v1.5.1PL2 Copyright (c) Steve Scherf et al.
# Submitted via: Collectorz.com_Music_Collector 6.11
#
DISCID=5309fc06
DTITLE=Buddy Guy - Stone Crazy
DYEAR=2002
DGENRE=Blues
TTITLE0=I Smell A Rat
TTITLE1=Are You Losing Your Mind
TTITLE2=You've Been Gone Too Long
TTITLE3=She's Out There Somewhere
TTITLE4=Razaf - Weldon - Outskirts Of Town
TTITLE5=When I Left Home
EXTD=
EXTT0=
EXTT1=
EXTT2=
EXTT3=
EXTT4=
EXTT5=
PLAYORDER=
